<svg xmlns="http://www.w3.org/2000/svg" xmlns:xlink="http://www.w3.org/1999/xlink" width="2920" zoomAndPan="magnify" viewBox="0 0 2190 374.999991" height="500" preserveAspectRatio="xMidYMid meet" version="1.0"><defs><g/></defs><g fill="#000000" fill-opacity="1"><g transform="translate(37.500024, 270.605418)"><g><path fill-rule="evenodd"
    clip-rule="evenodd" d="M 98.578125 3.296875 C 81.328125 3.296875 65.835938 -0.347656 52.109375 -7.640625 C 38.390625 -14.941406 27.609375 -25.097656 19.765625 -38.109375 C 11.921875 -51.128906 8 -65.875 8 -82.34375 C 8 -98.8125 11.921875 -113.554688 19.765625 -126.578125 C 27.609375 -139.597656 38.390625 -149.753906 52.109375 -157.046875 C 65.835938 -164.335938 81.328125 -167.984375 98.578125 -167.984375 C 113.640625 -167.984375 127.207031 -165.316406 139.28125 -159.984375 C 151.363281 -154.648438 161.40625 -146.96875 169.40625 -136.9375 L 139.75 -110.109375 C 129.09375 -122.972656 116.15625 -129.40625 100.9375 -129.40625 C 92 -129.40625 84.035156 -127.441406 77.046875 -123.515625 C 70.066406 -119.597656 64.65625 -114.070312 60.8125 -106.9375 C 56.976562 -99.800781 55.0625 -91.601562 55.0625 -82.34375 C 55.0625 -73.09375 56.976562 -64.898438 60.8125 -57.765625 C 64.65625 -50.628906 70.066406 -45.097656 77.046875 -41.171875 C 84.035156 -37.253906 92 -35.296875 100.9375 -35.296875 C 116.15625 -35.296875 129.09375 -41.722656 139.75 -54.578125 L 169.40625 -27.765625 C 161.40625 -17.722656 151.363281 -10.035156 139.28125 -4.703125 C 127.207031 0.628906 113.640625 3.296875 98.578125 3.296875 Z M 98.578125 3.296875 "/></g></g></g><g fill="#000000" fill-opacity="1"><g transform="translate(211.132635, 270.605418)"><g><pathfill-rule="evenodd"
    clip-rule="evenodd" d="M 78.34375 2.125 C 64.695312 2.125 52.382812 -0.695312 41.40625 -6.34375 C 30.425781 -12 21.835938 -19.84375 15.640625 -29.875 C 9.453125 -39.914062 6.359375 -51.289062 6.359375 -64 C 6.359375 -76.539062 9.453125 -87.832031 15.640625 -97.875 C 21.835938 -107.914062 30.382812 -115.71875 41.28125 -121.28125 C 52.1875 -126.851562 64.539062 -129.640625 78.34375 -129.640625 C 92.144531 -129.640625 104.535156 -126.851562 115.515625 -121.28125 C 126.503906 -115.71875 135.054688 -107.953125 141.171875 -97.984375 C 147.285156 -88.023438 150.34375 -76.695312 150.34375 -64 C 150.34375 -51.289062 147.285156 -39.914062 141.171875 -29.875 C 135.054688 -19.84375 126.503906 -12 115.515625 -6.34375 C 104.535156 -0.695312 92.144531 2.125 78.34375 2.125 Z M 78.34375 -33.40625 C 86.1875 -33.40625 92.617188 -36.109375 97.640625 -41.515625 C 102.660156 -46.929688 105.171875 -54.425781 105.171875 -64 C 105.171875 -73.40625 102.660156 -80.773438 97.640625 -86.109375 C 92.617188 -91.441406 86.1875 -94.109375 78.34375 -94.109375 C 70.5 -94.109375 64.066406 -91.441406 59.046875 -86.109375 C 54.035156 -80.773438 51.53125 -73.40625 51.53125 -64 C 51.53125 -54.425781 54.035156 -46.929688 59.046875 -41.515625 C 64.066406 -36.109375 70.5 -33.40625 78.34375 -33.40625 Z M 78.34375 -33.40625 "/></g></g></g><g fill="#000000" fill-opacity="1"><g transform="translate(367.825504, 270.605418)"><g><path d="M 97.40625 -129.640625 C 113.25 -129.640625 125.992188 -124.929688 135.640625 -115.515625 C 145.285156 -106.109375 150.109375 -91.914062 150.109375 -72.9375 L 150.109375 0 L 105.40625 0 L 105.40625 -65.640625 C 105.40625 -83.054688 98.425781 -91.765625 84.46875 -91.765625 C 76.78125 -91.765625 70.625 -89.253906 66 -84.234375 C 61.375 -79.210938 59.0625 -71.679688 59.0625 -61.640625 L 59.0625 0 L 14.359375 0 L 14.359375 -127.515625 L 56.9375 -127.515625 L 56.9375 -113.640625 C 61.957031 -118.816406 67.914062 -122.773438 74.8125 -125.515625 C 81.71875 -128.265625 89.25 -129.640625 97.40625 -129.640625 Z M 97.40625 -129.640625 "/></g></g></g><g fill="#000000" fill-opacity="1"><g transform="translate(531.576591, 270.605418)"><g><path d="M 102.34375 -5.171875 C 98.582031 -2.816406 93.992188 -1.015625 88.578125 0.234375 C 83.171875 1.492188 77.410156 2.125 71.296875 2.125 C 54.660156 2.125 41.875 -1.953125 32.9375 -10.109375 C 24 -18.273438 19.53125 -30.429688 19.53125 -46.578125 L 19.53125 -89.40625 L 0.9375 -89.40625 L 0.9375 -122.8125 L 19.53125 -122.8125 L 19.53125 -155.984375 L 64.234375 -155.984375 L 64.234375 -122.8125 L 93.40625 -122.8125 L 93.40625 -89.40625 L 64.234375 -89.40625 L 64.234375 -47.0625 C 64.234375 -42.507812 65.445312 -38.9375 67.875 -36.34375 C 70.3125 -33.757812 73.566406 -32.46875 77.640625 -32.46875 C 82.816406 -32.46875 87.367188 -33.800781 91.296875 -36.46875 Z M 102.34375 -5.171875 "/></g></g></g><g fill="#000000" fill-opacity="1"><g transform="translate(636.744303, 270.605418)"><g><path d="M 14.359375 -127.515625 L 59.0625 -127.515625 L 59.0625 0 L 14.359375 0 Z M 36.703125 -141.640625 C 28.546875 -141.640625 21.957031 -143.910156 16.9375 -148.453125 C 11.914062 -153.003906 9.40625 -158.65625 9.40625 -165.40625 C 9.40625 -172.144531 11.914062 -177.789062 16.9375 -182.34375 C 21.957031 -186.894531 28.546875 -189.171875 36.703125 -189.171875 C 44.859375 -189.171875 51.441406 -187.007812 56.453125 -182.6875 C 61.472656 -178.375 63.984375 -172.847656 63.984375 -166.109375 C 63.984375 -159.046875 61.472656 -153.203125 56.453125 -148.578125 C 51.441406 -143.953125 44.859375 -141.640625 36.703125 -141.640625 Z M 36.703125 -141.640625 "/></g></g></g><g fill="#000000" fill-opacity="1"><g transform="translate(710.385215, 270.605418)"><g><path d="M 151.515625 -127.515625 L 151.515625 -23.296875 C 151.515625 0.390625 145.082031 18.15625 132.21875 30 C 119.363281 41.84375 100.859375 47.765625 76.703125 47.765625 C 64.148438 47.765625 52.382812 46.351562 41.40625 43.53125 C 30.425781 40.707031 21.09375 36.550781 13.40625 31.0625 L 29.640625 -0.234375 C 34.816406 4.003906 41.363281 7.335938 49.28125 9.765625 C 57.207031 12.191406 65.015625 13.40625 72.703125 13.40625 C 84.460938 13.40625 93.085938 10.816406 98.578125 5.640625 C 104.066406 0.460938 106.8125 -7.21875 106.8125 -17.40625 L 106.8125 -21.640625 C 98.1875 -11.609375 85.5625 -6.59375 68.9375 -6.59375 C 57.644531 -6.59375 47.210938 -9.140625 37.640625 -14.234375 C 28.078125 -19.328125 20.472656 -26.539062 14.828125 -35.875 C 9.179688 -45.207031 6.359375 -55.992188 6.359375 -68.234375 C 6.359375 -80.304688 9.179688 -91.007812 14.828125 -100.34375 C 20.472656 -109.675781 28.078125 -116.890625 37.640625 -121.984375 C 47.210938 -127.085938 57.644531 -129.640625 68.9375 -129.640625 C 87.132812 -129.640625 100.46875 -123.757812 108.9375 -112 L 108.9375 -127.515625 Z M 79.53125 -42.109375 C 87.53125 -42.109375 94.15625 -44.539062 99.40625 -49.40625 C 104.65625 -54.269531 107.28125 -60.546875 107.28125 -68.234375 C 107.28125 -75.921875 104.691406 -82.15625 99.515625 -86.9375 C 94.347656 -91.71875 87.6875 -94.109375 79.53125 -94.109375 C 71.375 -94.109375 64.664062 -91.71875 59.40625 -86.9375 C 54.15625 -82.15625 51.53125 -75.921875 51.53125 -68.234375 C 51.53125 -60.546875 54.195312 -54.269531 59.53125 -49.40625 C 64.863281 -44.539062 71.53125 -42.109375 79.53125 -42.109375 Z M 79.53125 -42.109375 "/></g></g></g><g fill="#000000" fill-opacity="1"><g transform="translate(876.253785, 270.605418)"><g><path d="M 78.34375 2.125 C 64.695312 2.125 52.382812 -0.695312 41.40625 -6.34375 C 30.425781 -12 21.835938 -19.84375 15.640625 -29.875 C 9.453125 -39.914062 6.359375 -51.289062 6.359375 -64 C 6.359375 -76.539062 9.453125 -87.832031 15.640625 -97.875 C 21.835938 -107.914062 30.382812 -115.71875 41.28125 -121.28125 C 52.1875 -126.851562 64.539062 -129.640625 78.34375 -129.640625 C 92.144531 -129.640625 104.535156 -126.851562 115.515625 -121.28125 C 126.503906 -115.71875 135.054688 -107.953125 141.171875 -97.984375 C 147.285156 -88.023438 150.34375 -76.695312 150.34375 -64 C 150.34375 -51.289062 147.285156 -39.914062 141.171875 -29.875 C 135.054688 -19.84375 126.503906 -12 115.515625 -6.34375 C 104.535156 -0.695312 92.144531 2.125 78.34375 2.125 Z M 78.34375 -33.40625 C 86.1875 -33.40625 92.617188 -36.109375 97.640625 -41.515625 C 102.660156 -46.929688 105.171875 -54.425781 105.171875 -64 C 105.171875 -73.40625 102.660156 -80.773438 97.640625 -86.109375 C 92.617188 -91.441406 86.1875 -94.109375 78.34375 -94.109375 C 70.5 -94.109375 64.066406 -91.441406 59.046875 -86.109375 C 54.035156 -80.773438 51.53125 -73.40625 51.53125 -64 C 51.53125 -54.425781 54.035156 -46.929688 59.046875 -41.515625 C 64.066406 -36.109375 70.5 -33.40625 78.34375 -33.40625 Z M 78.34375 -33.40625 "/></g></g></g><g fill="#000000" fill-opacity="1"><g transform="translate(1048.440721, 270.605418)"><g><path d="M 187.046875 0 L 186.8125 -148.46875 L 114.578125 -22.828125 L 110.34375 -22.828125 L 37.875 -147.984375 L 37.875 0 L 30.109375 0 L 30.109375 -164.703125 L 36.703125 -164.703125 L 112.46875 -32.9375 L 187.984375 -164.703125 L 194.578125 -164.703125 L 194.8125 0 Z M 187.046875 0 "/></g></g></g><g fill="#000000" fill-opacity="1"><g transform="translate(1273.36319, 270.605418)"><g><path d="M 66.109375 -123.046875 C 80.703125 -123.046875 91.878906 -119.28125 99.640625 -111.75 C 107.398438 -104.226562 111.28125 -93.328125 111.28125 -79.046875 L 111.28125 0 L 103.765625 0 L 103.765625 -24.46875 C 99.835938 -16.625 93.988281 -10.46875 86.21875 -6 C 78.457031 -1.53125 69.164062 0.703125 58.34375 0.703125 C 44.695312 0.703125 33.992188 -2.429688 26.234375 -8.703125 C 18.472656 -14.972656 14.59375 -23.285156 14.59375 -33.640625 C 14.59375 -43.523438 18.117188 -51.566406 25.171875 -57.765625 C 32.234375 -63.960938 43.53125 -67.0625 59.0625 -67.0625 L 103.53125 -67.0625 L 103.53125 -79.046875 C 103.53125 -91.128906 100.351562 -100.304688 94 -106.578125 C 87.644531 -112.859375 78.269531 -116 65.875 -116 C 57.25 -116 49.171875 -114.503906 41.640625 -111.515625 C 34.109375 -108.535156 27.679688 -104.539062 22.359375 -99.53125 L 18.109375 -105.171875 C 24.078125 -110.816406 31.253906 -115.207031 39.640625 -118.34375 C 48.035156 -121.476562 56.859375 -123.046875 66.109375 -123.046875 Z M 58.8125 -5.875 C 80.78125 -5.875 95.6875 -15.679688 103.53125 -35.296875 L 103.53125 -60.703125 L 59.0625 -60.703125 C 46.351562 -60.703125 37.054688 -58.304688 31.171875 -53.515625 C 25.296875 -48.734375 22.359375 -42.265625 22.359375 -34.109375 C 22.359375 -25.328125 25.609375 -18.425781 32.109375 -13.40625 C 38.617188 -8.382812 47.519531 -5.875 58.8125 -5.875 Z M 58.8125 -5.875 "/></g></g></g><g fill="#000000" fill-opacity="1"><g transform="translate(1409.351858, 270.605418)"><g><path d="M 33.640625 -92.703125 C 37.253906 -102.421875 43.097656 -109.90625 51.171875 -115.15625 C 59.253906 -120.414062 69.253906 -123.046875 81.171875 -123.046875 L 81.171875 -115.28125 L 79.046875 -115.28125 C 64.929688 -115.28125 53.875 -110.8125 45.875 -101.875 C 37.875 -92.9375 33.875 -80.625 33.875 -64.9375 L 33.875 0 L 26.109375 0 L 26.109375 -122.109375 L 33.640625 -122.109375 Z M 33.640625 -92.703125 "/></g></g></g><g fill="#000000" fill-opacity="1"><g transform="translate(1500.638371, 270.605418)"><g><path d="M 120.46875 -122.109375 L 56.46875 18.359375 C 51.914062 28.546875 46.738281 35.753906 40.9375 39.984375 C 35.132812 44.222656 28.3125 46.34375 20.46875 46.34375 C 14.976562 46.34375 9.878906 45.441406 5.171875 43.640625 C 0.472656 41.835938 -3.523438 39.132812 -6.828125 35.53125 L -2.359375 29.40625 C 0.941406 33.019531 4.394531 35.609375 8 37.171875 C 11.601562 38.742188 15.757812 39.53125 20.46875 39.53125 C 26.582031 39.53125 31.875 37.800781 36.34375 34.34375 C 40.820312 30.894531 45.019531 24.9375 48.9375 16.46875 L 56.703125 -0.234375 L 1.171875 -122.109375 L 9.640625 -122.109375 L 60.9375 -8.9375 L 112.234375 -122.109375 Z M 120.46875 -122.109375 "/></g></g></g><g fill="#000000" fill-opacity="1"><g transform="translate(1622.275282, 270.605418)"><g><path d="M 26.109375 -174.578125 L 33.875 -174.578125 L 33.875 0 L 26.109375 0 Z M 26.109375 -174.578125 "/></g></g></g><g fill="#000000" fill-opacity="1"><g transform="translate(1682.27031, 270.605418)"><g><path d="M 66.109375 -123.046875 C 80.703125 -123.046875 91.878906 -119.28125 99.640625 -111.75 C 107.398438 -104.226562 111.28125 -93.328125 111.28125 -79.046875 L 111.28125 0 L 103.765625 0 L 103.765625 -24.46875 C 99.835938 -16.625 93.988281 -10.46875 86.21875 -6 C 78.457031 -1.53125 69.164062 0.703125 58.34375 0.703125 C 44.695312 0.703125 33.992188 -2.429688 26.234375 -8.703125 C 18.472656 -14.972656 14.59375 -23.285156 14.59375 -33.640625 C 14.59375 -43.523438 18.117188 -51.566406 25.171875 -57.765625 C 32.234375 -63.960938 43.53125 -67.0625 59.0625 -67.0625 L 103.53125 -67.0625 L 103.53125 -79.046875 C 103.53125 -91.128906 100.351562 -100.304688 94 -106.578125 C 87.644531 -112.859375 78.269531 -116 65.875 -116 C 57.25 -116 49.171875 -114.503906 41.640625 -111.515625 C 34.109375 -108.535156 27.679688 -104.539062 22.359375 -99.53125 L 18.109375 -105.171875 C 24.078125 -110.816406 31.253906 -115.207031 39.640625 -118.34375 C 48.035156 -121.476562 56.859375 -123.046875 66.109375 -123.046875 Z M 58.8125 -5.875 C 80.78125 -5.875 95.6875 -15.679688 103.53125 -35.296875 L 103.53125 -60.703125 L 59.0625 -60.703125 C 46.351562 -60.703125 37.054688 -58.304688 31.171875 -53.515625 C 25.296875 -48.734375 22.359375 -42.265625 22.359375 -34.109375 C 22.359375 -25.328125 25.609375 -18.425781 32.109375 -13.40625 C 38.617188 -8.382812 47.519531 -5.875 58.8125 -5.875 Z M 58.8125 -5.875 "/></g></g></g><g fill="#000000" fill-opacity="1"><g transform="translate(1818.258993, 270.605418)"><g><path d="M 83.765625 -123.046875 C 98.972656 -123.046875 110.96875 -118.613281 119.75 -109.75 C 128.539062 -100.894531 132.9375 -88.234375 132.9375 -71.765625 L 132.9375 0 L 125.171875 0 L 125.171875 -71.296875 C 125.171875 -85.722656 121.519531 -96.738281 114.21875 -104.34375 C 106.925781 -111.957031 96.535156 -115.765625 83.046875 -115.765625 C 67.835938 -115.765625 55.835938 -111.253906 47.046875 -102.234375 C 38.265625 -93.210938 33.875 -81.09375 33.875 -65.875 L 33.875 0 L 26.109375 0 L 26.109375 -122.109375 L 33.640625 -122.109375 L 33.640625 -92.234375 C 37.566406 -101.796875 43.878906 -109.320312 52.578125 -114.8125 C 61.285156 -120.300781 71.679688 -123.046875 83.765625 -123.046875 Z M 83.765625 -123.046875 "/></g></g></g><g fill="#000000" fill-opacity="1"><g transform="translate(1975.892933, 270.605418)"><g><path d="M 132.234375 -174.578125 L 132.234375 0 L 124.703125 0 L 124.703125 -33.40625 C 120.148438 -22.738281 113.207031 -14.382812 103.875 -8.34375 C 94.539062 -2.3125 83.914062 0.703125 72 0.703125 C 60.863281 0.703125 50.742188 -1.921875 41.640625 -7.171875 C 32.546875 -12.429688 25.367188 -19.765625 20.109375 -29.171875 C 14.859375 -38.585938 12.234375 -49.253906 12.234375 -61.171875 C 12.234375 -73.085938 14.859375 -83.75 20.109375 -93.15625 C 25.367188 -102.570312 32.546875 -109.90625 41.640625 -115.15625 C 50.742188 -120.414062 60.863281 -123.046875 72 -123.046875 C 83.757812 -123.046875 94.304688 -120.066406 103.640625 -114.109375 C 112.972656 -108.148438 119.914062 -99.914062 124.46875 -89.40625 L 124.46875 -174.578125 Z M 72.234375 -6.359375 C 82.109375 -6.359375 91.003906 -8.671875 98.921875 -13.296875 C 106.847656 -17.921875 113.085938 -24.390625 117.640625 -32.703125 C 122.191406 -41.015625 124.46875 -50.503906 124.46875 -61.171875 C 124.46875 -71.835938 122.191406 -81.285156 117.640625 -89.515625 C 113.085938 -97.753906 106.847656 -104.1875 98.921875 -108.8125 C 91.003906 -113.445312 82.109375 -115.765625 72.234375 -115.765625 C 62.347656 -115.765625 53.441406 -113.445312 45.515625 -108.8125 C 37.597656 -104.1875 31.363281 -97.753906 26.8125 -89.515625 C 22.269531 -81.285156 20 -71.835938 20 -61.171875 C 20 -50.503906 22.269531 -41.015625 26.8125 -32.703125 C 31.363281 -24.390625 37.597656 -17.921875 45.515625 -13.296875 C 53.441406 -8.671875 62.347656 -6.359375 72.234375 -6.359375 Z M 72.234375 -6.359375 "/></g></g></g></svg>